<?xml version="1.0" encoding="UTF-8"?>
<svg id="b" data-name="Capa 2" xmlns="http://www.w3.org/2000/svg" viewBox="0 0 108.42 43.42">
  <defs>
    <style>
      .d {
        fill: #fff;
      }

      .e {
        fill: #fc0;
      }
    </style>
  </defs>
  <g id="c" data-name="a">
    <path class="e" d="M70.51,33.68c0,.99-.4,1.89-1.05,2.54s-1.55,1.05-2.54,1.05-1.89-.4-2.54-1.05c-.65-.65-1.05-1.55-1.05-2.54,0-.14,0-.29,.02-.42,1.14,.28,2.34,.42,3.57,.42s2.42-.15,3.57-.42c.02,.14,.02,.28,.02,.42h0Z"/>
    <path class="e" d="M63.09,6.57c-1.25,.41-2.42,1-3.46,1.76-.31,.22-.61,.46-.9,.71-.43,.38-.84,.78-1.21,1.21-.23,.26-.44,.53-.65,.81-.62,.84-1.13,1.76-1.53,2.75-.09,.23-.18,.47-.26,.71l-2.61-.85s.03-.09,.05-.14c.47-1.38,1.13-2.67,1.95-3.84l.18-.25c.94-1.28,2.08-2.41,3.37-3.34l.38-.26c1.03-.7,2.16-1.28,3.36-1.71l.49-.17,.85,2.61h0Z"/>
    <path class="e" d="M81.37,13.67l-2.61,.85c-.08-.24-.16-.48-.26-.71-.39-.98-.91-1.91-1.53-2.75-.2-.28-.42-.55-.65-.81-.38-.43-.78-.84-1.21-1.22-.29-.25-.59-.49-.9-.71-1.04-.75-2.21-1.35-3.46-1.76l.85-2.61,.49,.17c1.19,.43,2.32,1.01,3.36,1.71l.38,.26c.66,.48,1.28,1,1.85,1.58,.55,.55,1.05,1.14,1.51,1.76,.06,.08,.12,.17,.18,.25,.82,1.17,1.48,2.46,1.95,3.83,.01,.05,.03,.09,.05,.14h0v.02Z"/>
    <path class="e" d="M78.5,26.79v5.52h-23.15v-5.52l1.45-1.06,.72-.53v-6.84c0-1.01,.18-1.99,.48-2.9,.02-.06,.04-.12,.06-.17,.02-.06,.04-.12,.06-.17,.04-.1,.08-.21,.12-.31,.01-.03,.03-.06,.04-.09s.03-.07,.05-.1c.02-.04,.04-.08,.06-.13s.05-.1,.07-.15,.05-.1,.08-.16,.06-.12,.09-.17c.03-.06,.06-.11,.09-.16h0s.06-.1,.09-.15v-.02s.04-.07,.06-.1c.15-.24,.3-.47,.47-.69,.58-.79,1.28-1.48,2.08-2.06,.79-.57,1.66-1.01,2.6-1.32,.91-.29,1.88-.45,2.88-.45s1.97,.16,2.88,.45c.94,.3,1.82,.75,2.61,1.32,.41,.3,.8,.63,1.16,.99,.33,.33,.64,.69,.92,1.07,.58,.78,1.04,1.66,1.35,2.6,.3,.91,.47,1.89,.48,2.9v6.84l.72,.53,1.45,1.06h0l.03-.03Z"/>
    <path class="d" d="M.02,32.33V0H12.51c3.01,0,5.28,.75,6.79,2.25,1.53,1.5,2.29,3.56,2.29,6.18,0,1.63-.28,2.96-.83,4-.55,1.04-1.46,1.93-2.72,2.65,2.08,.41,3.58,1.08,4.49,2.01,1.39,1.42,2.08,3.44,2.08,6.06s-.87,4.73-2.63,6.37c-1.97,1.86-4.81,2.79-8.52,2.79H0l.02,.02ZM8.42,12.72h1.54c1.28,0,2.26-.27,2.93-.81,.68-.54,1.02-1.32,1.02-2.35s-.33-1.81-1.01-2.35c-.67-.54-1.65-.81-2.95-.81h-1.54v6.32Zm0,13.08h1.87c1.86,0,3.24-.2,4.14-.59,.52-.24,.94-.61,1.24-1.13,.31-.51,.46-1.09,.46-1.72,0-1.31-.54-2.24-1.61-2.79-.47-.25-.98-.41-1.53-.49-.55-.07-1.5-.11-2.85-.11h-1.73v6.82h0Z"/>
    <path class="d" d="M37.01,0V32.33h-7.76V0h7.76Z"/>
    <path class="d" d="M50.04,12.72v19.61h-7.76V12.72h7.76Z"/>
    <path class="d" d="M108.42,10.35V30.82c0,3-.37,5.2-1.11,6.59-1.17,2.21-2.92,3.82-5.25,4.83-1.8,.79-3.94,1.18-6.41,1.18-4.29,0-7.64-1.28-10.06-3.84-1.29-1.37-2.08-2.9-2.37-4.57h8.73c.52,1.47,1.75,2.2,3.69,2.2,1.56,0,2.79-.47,3.68-1.4s1.34-2.21,1.34-3.84v-2.08c-1.17,1.07-2.26,1.82-3.28,2.25s-2.23,.64-3.63,.64c-3.6,0-6.43-1.31-8.5-3.93-1.53-1.94-2.3-4.33-2.3-7.18,0-3.6,1.14-6.53,3.43-8.79,2.13-2.1,4.71-3.15,7.74-3.15,1.4,0,2.61,.23,3.63,.67,1.02,.45,1.98,1.2,2.9,2.24v-2.3h7.77Zm-12.4,5.93c-1.39,0-2.56,.49-3.53,1.47-.98,.98-1.47,2.14-1.47,3.48,0,1.42,.49,2.62,1.47,3.6,.96,.98,2.14,1.47,3.55,1.47s2.55-.49,3.53-1.47,1.47-2.16,1.47-3.55-.48-2.57-1.44-3.53-2.15-1.45-3.57-1.47h0Z"/>
    <path class="d" d="M46.16,0c1.21,0,2.25,.43,3.1,1.28,.85,.85,1.28,1.88,1.28,3.08s-.43,2.25-1.28,3.1-1.88,1.28-3.08,1.28-2.26-.43-3.1-1.28c-.85-.87-1.28-1.92-1.28-3.15s.43-2.18,1.28-3.02,1.88-1.28,3.08-1.29Z"/>
  </g>
</svg>